<svg width="36" height="36" viewBox="0 0 36 36" fill="none" xmlns="http://www.w3.org/2000/svg">
<g clip-path="url(#clip0_1_40)">
<path d="M36 32C36 33.0609 35.5786 34.0783 34.8284 34.8284C34.0783 35.5786 33.0609 36 32 36H4C2.93913 36 1.92172 35.5786 1.17157 34.8284C0.421427 34.0783 0 33.0609 0 32V4C0 2.93913 0.421427 1.92172 1.17157 1.17157C1.92172 0.421427 2.93913 0 4 0L32 0C33.0609 0 34.0783 0.421427 34.8284 1.17157C35.5786 1.92172 36 2.93913 36 4V32Z" fill="#3B88C3"/>
<path d="M4.298 9.838C4.20919 9.49389 4.16748 9.13932 4.174 8.784C4.174 7.792 5.011 6.738 6.375 6.738C7.863 6.738 8.577 7.606 8.855 8.97L11.491 22.147H11.553L15.584 8.567C15.925 7.451 16.856 6.737 18.002 6.737C19.15 6.737 20.079 7.45 20.421 8.567L24.451 22.147H24.513L27.15 8.97C27.427 7.606 28.142 6.738 29.63 6.738C30.993 6.738 31.831 7.792 31.831 8.784C31.831 9.218 31.8 9.435 31.706 9.838L27.77 26.768C27.459 28.071 26.436 29.186 24.701 29.186C24.0128 29.1945 23.3406 28.978 22.7867 28.5696C22.2328 28.1611 21.8273 27.583 21.632 26.923L18.035 14.954H17.973L14.376 26.923C14.1802 27.5829 13.7745 28.1609 13.2205 28.5693C12.6664 28.9777 11.9943 29.1942 11.306 29.186C9.57 29.186 8.547 28.071 8.236 26.768L4.298 9.838Z" fill="white"/>
</g>
<defs>
<clipPath id="clip0_1_40">
<rect width="36" height="36" fill="white"/>
</clipPath>
</defs>
</svg>
