<svg width="60" height="63" viewBox="0 0 60 63" fill="none" xmlns="http://www.w3.org/2000/svg">
<g clip-path="url(#clip0_1_21)">
<path d="M49.332 20.3987C48.6934 20.1404 48.0495 19.9011 47.4007 19.6811C47.5097 19.1561 47.61 18.6375 47.6991 18.1279C49.1611 9.76081 48.2053 3.02008 44.9407 0.800715C41.8106 -1.32692 36.6916 0.891623 31.5218 6.19606C31.0123 6.71977 30.5141 7.25857 30.0277 7.81195C29.702 7.44397 29.3706 7.08313 29.0337 6.72962C23.6154 1.05797 18.1845 -1.33244 14.9234 0.893281C11.7961 3.02754 10.8701 9.36429 12.1863 17.294C12.3173 18.0794 12.4651 18.8607 12.6298 19.6372C11.861 19.8947 11.1192 20.1688 10.4093 20.4606C4.0568 23.0718 0 27.1637 0 31.4082C0 35.792 4.35516 40.189 10.9716 42.8551C11.508 43.0704 12.0488 43.2699 12.5937 43.4534C12.4167 44.2897 12.2596 45.1317 12.1226 45.9783C10.8677 53.7705 11.8477 59.9574 14.9665 62.0782C18.1877 64.2682 23.5943 62.0174 28.8586 56.5919C29.2855 56.1508 29.7029 55.6973 30.1106 55.2316C30.6374 55.8308 31.1782 56.4126 31.7325 56.9763C36.832 62.1495 41.8683 64.2384 44.9841 62.1119C48.2023 59.9154 49.2483 53.2689 47.8903 45.1826C47.7833 44.549 47.6634 43.9187 47.5305 43.292C47.9102 43.1594 48.2829 43.0229 48.6462 42.8808C55.5246 40.1942 60 35.8505 60 31.4082C60 27.1483 55.8122 23.0287 49.332 20.3987ZM47.8402 40.0127C47.512 40.1406 47.1755 40.2641 46.8323 40.3843C46.073 37.5502 45.0483 34.5367 43.7941 31.4229C44.9909 28.3834 45.9762 25.4083 46.7142 22.5926C47.328 22.8021 47.9236 23.0229 48.4978 23.2558C54.0502 25.5094 57.4369 28.841 57.4369 31.4082C57.4369 34.1426 53.7792 37.6925 47.8402 40.0127ZM45.3759 45.7695C45.9764 49.345 46.062 52.5779 45.6642 55.1053C45.307 57.3764 44.5884 58.8903 43.6997 59.4968C41.809 60.7872 37.7653 59.11 33.4043 54.6856C32.8888 54.1615 32.3857 53.6207 31.8956 53.0636C33.5864 50.8838 35.276 48.3497 36.9251 45.5351C39.8257 45.2317 42.566 44.7355 45.0511 44.0582C45.1708 44.6255 45.2791 45.1961 45.3759 45.7695ZM20.4553 59.2738C18.608 60.0428 17.1366 60.0649 16.2471 59.4603C14.3545 58.1735 13.5677 53.2057 14.6409 46.542C14.7685 45.7546 14.9146 44.9715 15.079 44.1936C17.5366 44.8347 20.257 45.2956 23.1645 45.5735C24.8248 48.3276 26.5631 50.8589 28.3151 53.0755C27.9428 53.5002 27.5616 53.9141 27.172 54.3167C24.844 56.7157 22.5113 58.4178 20.4553 59.2738ZM11.8008 39.9958C8.87508 38.8168 6.45891 37.2846 4.80281 35.6126C3.31453 34.1103 2.56336 32.6185 2.56336 31.4082C2.56336 28.8324 5.82047 25.547 11.253 23.3141C11.9123 23.0433 12.6023 22.7877 13.3184 22.5479C14.0693 25.4271 15.0541 28.4375 16.2427 31.4817C15.0387 34.5709 14.0398 37.6295 13.2816 40.5427C12.7842 40.3747 12.2905 40.1924 11.8008 39.9958ZM14.7019 16.7135C13.5743 9.91969 14.3231 4.79486 16.2077 3.50861C18.2149 2.13864 22.6535 4.09191 27.3319 8.98933C27.6369 9.30941 27.9371 9.63598 28.2321 9.96887C26.4888 12.1758 24.7664 14.6883 23.1209 17.4261C20.299 17.7345 17.5978 18.2296 15.1144 18.893C14.9614 18.1708 14.8238 17.4439 14.7019 16.7135ZM40.5832 24.248C39.9966 23.0535 39.3883 21.874 38.7586 20.7104C40.673 20.9958 42.5072 21.3746 44.2296 21.8377C43.7126 23.7918 43.068 25.8346 42.3094 27.9291C41.7548 26.6887 41.1793 25.4614 40.5832 24.248ZM30.0288 12.1286C31.211 13.6386 32.3951 15.3244 33.5597 17.1536C31.1972 17.0221 28.8307 17.0215 26.4682 17.152C27.634 15.3396 28.8281 13.656 30.0288 12.1286ZM19.4067 24.2688C18.818 25.4724 18.2533 26.692 17.7129 27.9266C16.9666 25.8396 16.328 23.7874 15.8065 21.8057C17.5184 21.3542 19.3439 20.985 21.2461 20.7048C20.6094 21.8756 19.9961 23.0641 19.4067 24.2688ZM21.3007 42.3266C19.3355 42.0679 17.4825 41.7178 15.7711 41.2785C16.3008 39.2614 16.9535 37.1655 17.7159 35.0338C18.2585 36.2693 18.8256 37.4897 19.4168 38.6938C20.0248 39.9317 20.6543 41.1442 21.3007 42.3266ZM30.0996 50.9006C28.8846 49.3555 27.6729 47.6459 26.4895 45.8073C27.6384 45.8604 28.8096 45.8874 30 45.8874C31.223 45.8874 32.4319 45.8551 33.6218 45.7927C32.4534 47.6644 31.2738 49.3765 30.0996 50.9006ZM42.3335 34.9249C43.1355 37.0801 43.8115 39.165 44.3482 41.1475C42.6087 41.6156 40.7304 41.9925 38.7513 42.2724C39.3855 41.0872 39.9996 39.8872 40.5933 38.6731C41.1969 37.4391 41.7771 36.1894 42.3335 34.9249ZM38.373 37.1633C37.4642 39.0247 36.5042 40.8507 35.4947 42.6385C33.666 42.7912 31.8333 42.8671 30 42.8659C28.1327 42.8659 26.3166 42.7974 24.5677 42.6637C23.5318 40.88 22.5535 39.0508 21.6349 37.1799C20.7207 35.3189 19.8669 33.4177 19.0751 31.4803C19.8649 29.5425 20.7163 27.6404 21.6274 25.778L21.6272 25.7783C22.538 23.9154 23.5084 22.094 24.5365 20.318C26.3208 20.1588 28.1505 20.076 29.9998 20.076C31.8574 20.076 33.6898 20.1597 35.4736 20.3199C36.4913 22.0933 37.4555 23.9084 38.3646 25.762C39.2788 27.6203 40.1414 29.5131 40.9512 31.4375C40.1497 33.3816 39.2898 35.2914 38.373 37.1633ZM43.6605 3.41853C45.6696 4.78464 46.451 10.2935 45.1887 17.5178C45.108 17.9787 45.0176 18.4482 44.9191 18.9243C42.4296 18.2467 39.7266 17.743 36.8965 17.43C35.2479 14.6621 33.5395 12.1457 31.8246 9.96721C32.2741 9.45645 32.7342 8.95893 33.2046 8.47511C37.6343 3.93054 41.7743 2.13615 43.6605 3.41853ZM30 25.0916C32.959 25.0916 35.3578 27.9197 35.3578 31.4082C35.3578 34.8967 32.959 37.7248 30 37.7248C27.041 37.7248 24.6422 34.8967 24.6422 31.4082C24.6422 27.9197 27.041 25.0916 30 25.0916Z" fill="#00D8FF"/>
</g>
<defs>
<clipPath id="clip0_1_21">
<rect width="60" height="63" fill="white"/>
</clipPath>
</defs>
</svg>
