<svg width="96" height="32" viewBox="0 0 96 32" fill="none" xmlns="http://www.w3.org/2000/svg">
<g clip-path="url(#clip0_1_14)">
<path d="M93.0098 19.5566L95.673 21.3602C94.8086 22.6535 92.7413 24.8726 89.1669 24.8726C84.7284 24.8726 81.423 21.384 81.423 16.9461C81.423 12.2236 84.7635 9.01981 88.7933 9.01981C92.8463 9.01981 94.8319 12.2947 95.4744 14.0627L95.8249 14.9646L85.3826 19.3549C86.1769 20.9449 87.4151 21.7518 89.1669 21.7518C90.9191 21.7518 92.1338 20.8737 93.0098 19.5566ZM84.822 16.6971L91.7951 13.7543C91.4096 12.7695 90.2651 12.0695 88.8983 12.0695C87.1581 12.0695 84.7403 13.6358 84.822 16.6971Z" fill="#FF302F"/>
<path d="M76.3888 0.939232H79.7526V24.1488H76.3888V0.939041V0.939232Z" fill="#20B15A"/>
<path d="M71.0859 9.63676H74.3331V23.7333C74.3331 29.583 70.9341 31.9918 66.9159 31.9918C63.1316 31.9918 60.8541 29.4051 60.0013 27.3049L62.9798 26.047C63.5169 27.3404 64.8135 28.8712 66.9159 28.8712C69.4973 28.8712 71.0859 27.2455 71.0859 24.208V23.0689H70.9691C70.1981 24.0181 68.7264 24.8724 66.8576 24.8724C62.9563 24.8724 59.382 21.4194 59.382 16.9699C59.382 12.4964 62.9563 9.008 66.8576 9.008C68.7148 9.008 70.1981 9.85047 70.9691 10.776H71.0859V9.63695V9.63676ZM71.3194 16.9699C71.3194 14.1695 69.4856 12.1286 67.1496 12.1286C64.7901 12.1286 62.8044 14.1695 62.8044 16.9699C62.8044 19.7345 64.7901 21.7398 67.1496 21.7398C69.4858 21.7518 71.3196 19.7345 71.3196 16.9699H71.3194Z" fill="#3686F7"/>
<path d="M40.9155 16.9105C40.9155 21.4789 37.4115 24.8368 33.1131 24.8368C28.8148 24.8368 25.3106 21.467 25.3106 16.9105C25.3106 12.3185 28.8148 8.97238 33.1131 8.97238C37.4115 8.97238 40.9155 12.3185 40.9155 16.9105ZM37.5049 16.9105C37.5049 14.0629 35.4724 12.1048 33.1131 12.1048C30.7537 12.1048 28.7212 14.0629 28.7212 16.9105C28.7212 19.7345 30.7537 21.7162 33.1131 21.7162C35.4726 21.7162 37.5049 19.7345 37.5049 16.9105Z" fill="#FF302F"/>
<path d="M57.9572 16.9461C57.9572 21.5145 54.453 24.8724 50.1547 24.8724C45.8563 24.8724 42.3523 21.5143 42.3523 16.9461C42.3523 12.3541 45.8563 9.01981 50.1547 9.01981C54.453 9.01981 57.9572 12.3423 57.9572 16.9461ZM54.5347 16.9461C54.5347 14.0985 52.5024 12.1404 50.1429 12.1404C47.7836 12.1404 45.7511 14.0985 45.7511 16.9461C45.7511 19.7701 47.7836 21.7518 50.1429 21.7518C52.5141 21.7518 54.5347 19.7583 54.5347 16.9461Z" fill="#FFBA40"/>
<path d="M12.4856 21.3958C7.5915 21.3958 3.7605 17.3851 3.7605 12.4133C3.7605 7.44172 7.5915 3.43105 12.4856 3.43105C15.1254 3.43105 17.0526 4.48705 18.4776 5.83982L20.8254 3.45486C18.8398 1.52077 16.1884 0.0491486 12.4856 0.0491486C5.78119 0.049339 0.139503 5.60267 0.139503 12.4133C0.139503 19.2244 5.78119 24.7775 12.4856 24.7775C16.1066 24.7775 18.8398 23.5672 20.9773 21.3128C23.1731 19.0819 23.8506 15.9493 23.8506 13.4101C23.8506 12.6151 23.7572 11.7964 23.652 11.1912H12.4856V14.4899H20.4399C20.2063 16.5547 19.5639 17.9667 18.6178 18.9276C17.4731 20.1025 15.6628 21.3958 12.4856 21.3958Z" fill="#3686F7"/>
</g>
<defs>
<clipPath id="clip0_1_14">
<rect width="96" height="32" fill="white"/>
</clipPath>
</defs>
</svg>
