<svg width="25" height="25" viewBox="0 0 44 40" fill="none" xmlns="http://www.w3.org/2000/svg">
<path d="M34.8333 19.9167C34.8333 16.6667 33.5879 13.9094 31.097 11.645C28.6073 9.38167 25.575 8.25 22 8.25V4.91667C24.2917 4.91667 26.4385 5.31223 28.4405 6.10334C30.4413 6.89556 32.1829 7.96556 33.6655 9.31334C35.1468 10.66 36.3232 12.2433 37.1947 14.0633C38.0649 15.8822 38.5 17.8333 38.5 19.9167H34.8333ZM27.5 19.9167C27.5 18.5278 26.9653 17.3472 25.8958 16.375C24.8264 15.4028 23.5278 14.9167 22 14.9167V11.5833C24.5361 11.5833 26.6982 12.3956 28.4863 14.02C30.2732 15.6456 31.1667 17.6111 31.1667 19.9167H27.5ZM36.575 35C32.6333 35 28.7913 34.2083 25.0488 32.625C21.3052 31.0417 17.9899 28.9306 15.103 26.2917C12.2149 23.6528 9.89267 20.6317 8.13633 17.2283C6.37878 13.8261 5.5 10.3333 5.5 6.75001V5.87501C5.5 5.56945 5.53056 5.27778 5.59167 5.00001H16.3167L18.0125 13.375L12.7875 18.1667C14.0708 20.1667 15.6829 22.0417 17.6238 23.7917C19.5635 25.5417 21.6944 27.0556 24.0167 28.3333L29.3333 23.5L38.5 25.1667V34.9167C38.1944 34.9444 37.8736 34.9656 37.5375 34.98C37.2014 34.9933 36.8806 35 36.575 35Z" fill="white"/>
</svg>
