<svg width="67" height="62" viewBox="0 0 67 62" fill="none" xmlns="http://www.w3.org/2000/svg">
<path d="M19.519 54.8603L15.1116 57.0303V47.2653L20.6182 52.6903L19.519 54.8603Z" fill="#633D35"/>
<path d="M52.3385 9.66327C52.3385 11.1261 52.6055 20.0725 52.6055 20.0725C52.6055 20.0725 52.7416 21.0315 53.5215 21.2737C54.0344 21.4336 55.1546 21.0945 56.5208 20.1064C56.704 19.9756 56.95 19.9562 57.1489 20.0628C57.6723 20.3534 58.7977 20.9201 59.5044 22.6397C60.2843 24.5384 60.1377 26.1369 60.0173 26.815C59.9755 27.0426 59.8603 27.2509 59.719 27.4156C58.447 28.8687 52.082 36.4153 52.082 41.2106C52.082 41.2106 52.1867 48.2098 52.1867 52.327C52.1867 56.0809 45.3349 59.2148 36.2271 59.9414L31.1445 58.6481L25.282 59.6217C23.4186 59.3553 21.6808 58.9872 20.1209 58.5319L16.2109 48.3503L15.1116 57.0303C15.1116 57.0303 12.1752 54.2451 12.1752 52.327C12.1752 48.1759 11.0759 9.68749 11.0759 9.68749L52.3385 9.66327Z" fill="#AD7156"/>
<path d="M24.6016 17.2341C24.4288 19.9272 24.1252 22.5961 23.8007 25.2602L23.3139 29.2466C23.1621 30.5738 22.9632 31.8864 23.0051 33.1603C23.0051 34.4681 23.0731 35.805 23.1464 37.137L23.3401 41.1477C23.4657 43.8263 23.5756 46.5049 23.5547 49.2028C22.9266 46.5678 22.4816 43.9086 22.1205 41.2397C21.7645 38.5659 21.4871 35.9019 21.4348 33.1652C21.4243 31.7556 21.6441 30.3994 21.843 29.0673C22.0734 27.7353 22.3037 26.4081 22.5916 25.0906C23.1516 22.4508 23.7902 19.8303 24.6016 17.2341ZM17.7969 30.7966C17.9382 31.1356 17.9539 31.5038 17.9958 31.8573C18.022 32.2158 18.0481 32.5742 18.0586 32.9327C18.0795 33.6495 18.09 34.3664 18.0795 35.0833C18.0691 36.517 18.0115 37.9459 17.9277 39.3749C17.8492 40.8038 17.7445 42.2278 17.6189 43.6519C17.509 45.0759 17.3467 46.5 17.1949 47.9241L17.1792 47.7497L17.9225 50.2733L18.6291 52.8066C19.0845 54.5019 19.519 56.1972 19.8906 57.9167C19.1997 56.2892 18.5716 54.6375 17.9644 52.9858L17.0745 50.5009L16.2266 48.0161L16.2004 47.9386L16.2109 47.8466C16.3417 46.4273 16.4516 45.0033 16.5982 43.5792C16.7291 42.16 16.8756 40.7359 17.0274 39.3167L17.4933 35.0591L17.7184 32.9278C17.755 32.5742 17.7864 32.2158 17.8126 31.8622C17.823 31.5086 17.8754 31.1502 17.7969 30.7966ZM30.6211 46.5388V58.6481L34.8086 59.6169C34.8086 59.6169 32.1914 52.3513 30.6211 46.5388Z" fill="#CE8963"/>
<path d="M46.3242 38.3044C49.2973 32.0317 59.7661 25.2601 59.7661 25.2601L60.0749 25.0519C60.1325 25.9044 60.0854 26.5244 60.0016 26.8634C59.965 27.0136 59.8446 27.2606 59.7609 27.3526C58.7559 28.4958 52.082 36.2748 52.082 41.2058C52.082 41.2058 52.1867 48.205 52.1867 52.3222C52.1867 54.1676 49.9883 56.7058 45.2773 58.1589L47.3711 44.112L42.6602 48.4714C42.6602 48.4762 44.2357 42.717 46.3242 38.3044ZM52.6055 19.7576C52.7416 21.7194 54.2177 21.2737 54.2177 21.2737C52.5217 22.01 50.0616 22.4217 48.6378 21.545C47.0675 20.5762 46.3242 15.5436 46.3242 15.5436L47.3711 12.6373L52.3123 9.95874L52.6055 19.7576Z" fill="#965B44"/>
<path d="M30.6106 2.06827C20.1157 2.29108 11.7773 5.6817 11.7773 9.8328C11.7773 14.1292 20.702 17.607 31.7098 17.607C42.7177 17.607 51.6423 14.1244 51.6423 9.8328C51.6423 5.70108 43.3825 2.32014 32.9504 2.07311" fill="#FFCC80"/>
<path d="M30.6106 2.06827C26.8576 2.34436 23.115 2.89171 19.6237 4.08327C17.8859 4.66936 16.1899 5.39592 14.7714 6.40827C14.0752 6.91686 13.4314 7.48842 13.0074 8.14717C12.5677 8.79624 12.3898 9.5228 12.5154 10.2203C12.641 10.913 13.065 11.5717 13.646 12.1336C14.227 12.6955 14.9284 13.1944 15.6927 13.6109C17.2263 14.4489 18.9484 15.0447 20.7072 15.4951C24.2404 16.3961 27.9463 16.7739 31.6418 16.769C35.332 16.7787 39.0432 16.4155 42.5816 15.5242C44.3404 15.0786 46.073 14.4925 47.6119 13.669C48.3813 13.2573 49.0984 12.7778 49.6847 12.2159C50.2762 11.6637 50.7316 11.0147 50.8781 10.322C51.0509 9.62936 50.8729 8.9028 50.4751 8.24405C50.0668 7.5853 49.4439 6.99921 48.753 6.48577C47.3554 5.45405 45.6595 4.72264 43.9269 4.12686C40.446 2.92077 36.7034 2.36374 32.9504 2.07311C33.8926 2.05858 34.8348 2.06342 35.7822 2.09249C36.7244 2.13608 37.6718 2.20874 38.6088 2.31046C40.4879 2.52358 42.367 2.83842 44.2043 3.34217C46.0311 3.8653 47.8422 4.53858 49.4648 5.59936C50.2762 6.13218 51.0299 6.78124 51.5952 7.61436C52.1553 8.44264 52.4746 9.51796 52.2705 10.5497C52.0925 11.5862 51.4853 12.4726 50.7944 13.175C50.093 13.887 49.2764 14.444 48.4284 14.9284C46.7325 15.8875 44.9005 16.5414 43.0475 17.0548C39.3206 18.043 35.4734 18.4305 31.6366 18.445C27.805 18.4159 23.9525 18.0236 20.2309 17.0161C18.3779 16.4978 16.5511 15.8294 14.8604 14.8606C14.0177 14.3714 13.2116 13.795 12.5154 13.0733C11.8349 12.3564 11.2591 11.4409 11.1126 10.4044C11.0445 9.89092 11.0812 9.36296 11.2225 8.86405C11.3586 8.36514 11.6098 7.91467 11.8977 7.50296C12.4788 6.67952 13.2534 6.05467 14.0648 5.52671C15.7031 4.49014 17.509 3.82171 19.341 3.30827C21.1783 2.81421 23.0574 2.50421 24.9418 2.29592C25.884 2.19905 26.8262 2.12639 27.7736 2.08764C28.721 2.04889 29.6684 2.04889 30.6106 2.06827Z" fill="#CE8963"/>
<path d="M11.4685 8.54922C11.4685 11.9544 18.9694 14.7153 28.229 14.7153C37.4886 14.7153 44.9894 11.9544 44.9894 8.54922C44.9894 5.14406 41.718 1.21578 28.229 2.37828C19.0112 3.1775 11.4685 5.13922 11.4685 8.54922Z" fill="url(#paint0_radial_1_27)"/>
<path opacity="0.66" d="M16.2684 9.01907C16.2632 9.69235 16.6924 10.2978 17.2054 10.7677C17.7341 11.2327 18.3622 11.5959 19.0165 11.9011C20.3303 12.5017 21.7488 12.8892 23.1778 13.1895C26.0462 13.7466 28.988 13.9452 31.9087 13.9113C34.8295 13.8774 37.7608 13.6061 40.5821 12.9667C41.9849 12.6374 43.372 12.2159 44.6387 11.6105C45.2669 11.3102 45.8584 10.942 46.3452 10.5158C46.8162 10.0799 47.167 9.55673 47.1513 9.02392C47.146 8.49595 46.7901 7.98735 46.3085 7.56595C45.8165 7.14939 45.225 6.80063 44.5916 6.51485C43.3249 5.93845 41.9378 5.55095 40.535 5.25064C39.127 4.95032 37.6927 4.75173 36.2533 4.6161C34.8138 4.47079 33.3587 4.40298 31.9087 4.39329C29.0037 4.37392 26.0829 4.50954 23.2197 5.01813C21.7959 5.28938 20.3774 5.63813 19.0584 6.2097C18.4041 6.50032 17.7759 6.84907 17.2368 7.29954C16.7186 7.75001 16.2789 8.34095 16.2684 9.01907ZM16.1533 9.01907C16.1428 8.3022 16.5877 7.66767 17.1112 7.18329C17.6503 6.69892 18.268 6.30173 18.9275 5.9772C20.2361 5.3136 21.6441 4.84376 23.0784 4.47079C25.9468 3.73454 28.9304 3.37126 31.9087 3.3422C33.4005 3.33735 34.8923 3.39548 36.3789 3.5311C37.8655 3.67642 39.3416 3.90892 40.802 4.23829C42.2571 4.5822 43.6966 5.01814 45.0627 5.67689C45.7432 6.00626 46.3975 6.40345 46.9838 6.92173C47.2664 7.18813 47.5334 7.48845 47.7375 7.8372C47.9416 8.18595 48.0725 8.59767 48.0673 9.01907C48.062 9.44048 47.9259 9.84735 47.7166 10.1913C47.5072 10.5352 47.2402 10.8306 46.9523 11.0874C46.3661 11.5911 45.7066 11.9738 45.0209 12.2838C43.6547 12.9086 42.2152 13.3155 40.7601 13.6255C37.8498 14.2309 34.8766 14.4538 31.914 14.4344C28.9566 14.3859 25.9887 14.0905 23.1255 13.4027C21.6965 13.0588 20.2832 12.6228 18.9694 11.9931C18.3098 11.6831 17.687 11.3005 17.1426 10.8306C16.6139 10.3559 16.1585 9.73595 16.1533 9.01907Z" fill="#7F441C"/>
<path opacity="0.82" d="M19.7912 8.47656C19.7912 10.2736 24.8476 11.7316 31.0817 11.7316C37.3159 11.7316 42.3723 10.2736 42.3723 8.47656C42.3723 6.67953 37.3159 5.22156 31.0817 5.22156C24.8476 5.22156 19.7912 6.67953 19.7912 8.47656ZM21.7174 8.47656C21.7174 7.13 25.706 6.03531 30.6316 6.03531C35.5571 6.03531 39.5457 7.13 39.5457 8.47656C39.5457 9.82312 35.5571 10.9178 30.6316 10.9178C25.706 10.9178 21.7174 9.82312 21.7174 8.47656Z" fill="#B5772C"/>
<path opacity="0.74" d="M32.1443 9.2903C34.5986 9.2903 36.5883 8.80453 36.5883 8.2053C36.5883 7.60607 34.5986 7.1203 32.1443 7.1203C29.69 7.1203 27.7003 7.60607 27.7003 8.2053C27.7003 8.80453 29.69 9.2903 32.1443 9.2903Z" fill="url(#paint1_linear_1_27)"/>
<defs>
<radialGradient id="paint0_radial_1_27" cx="0" cy="0" r="1" gradientUnits="userSpaceOnUse" gradientTransform="translate(31.4637 6.98461) rotate(180) scale(13.3691 9.87785)">
<stop offset="0.056" stop-color="#FFA726"/>
<stop offset="0.135" stop-color="#FFA726"/>
<stop offset="1" stop-color="#FFA726" stop-opacity="0.1"/>
</radialGradient>
<linearGradient id="paint1_linear_1_27" x1="36.5883" y1="8.20482" x2="27.6956" y2="8.20482" gradientUnits="userSpaceOnUse">
<stop stop-color="#8A5140"/>
<stop offset="1" stop-color="#8A5140"/>
</linearGradient>
</defs>
</svg>
