<svg width="36" height="36" viewBox="0 0 36 36" fill="none" xmlns="http://www.w3.org/2000/svg">
<g clip-path="url(#clip0_1_43)">
<path d="M36 32C36 33.0609 35.5786 34.0783 34.8284 34.8284C34.0783 35.5786 33.0609 36 32 36H4C2.93913 36 1.92172 35.5786 1.17157 34.8284C0.421427 34.0783 0 33.0609 0 32V4C0 2.93913 0.421427 1.92172 1.17157 1.17157C1.92172 0.421427 2.93913 0 4 0L32 0C33.0609 0 34.0783 0.421427 34.8284 1.17157C35.5786 1.92172 36 2.93913 36 4V32Z" fill="#3B88C3"/>
<path d="M19.723 6.552C21.987 6.552 26.389 7.296 26.389 10.025C26.389 11.141 25.614 12.102 24.467 12.102C23.195 12.102 22.328 11.017 19.723 11.017C15.879 11.017 13.894 14.273 13.894 18.055C13.894 21.744 15.909 24.907 19.723 24.907C22.328 24.907 23.381 23.605 24.653 23.605C26.049 23.605 26.7 25 26.7 25.712C26.7 28.689 22.018 29.371 19.724 29.371C13.43 29.371 9.058 24.379 9.058 17.961C9.057 11.513 13.398 6.552 19.723 6.552Z" fill="white"/>
</g>
<defs>
<clipPath id="clip0_1_43">
<rect width="36" height="36" fill="white"/>
</clipPath>
</defs>
</svg>
