<svg width="69" height="69" viewBox="0 0 69 69" fill="none" xmlns="http://www.w3.org/2000/svg">
<path d="M41.0148 0C44.6989 4.84411 46.94 10.8084 46.94 17.2948C46.94 22.1413 45.7222 26.7113 43.5705 30.7333C43.4763 30.9094 43.3808 31.0849 43.2829 31.2588C42.18 33.2355 40.84 35.0779 39.291 36.7474C39.2245 36.8197 39.1583 36.8923 39.0911 36.9637C39.0805 36.975 39.0697 36.9856 39.0593 36.9966C33.5801 42.8084 25.7123 46.4534 16.9713 46.4534C10.6986 46.4534 4.86854 44.5648 0.0549219 41.3571V62.6621C3.12433 64.7982 6.48107 66.7149 10.1873 68.2599C8.19348 65.3138 6.63948 57.6277 7.68689 54.387C14.6738 61.8563 27.7876 64.3517 38.5244 63.1634C31.6758 61.6268 27.7181 56.5096 27.9623 50.965C37.973 52.1153 47.888 51.7961 57.9309 47.9573C51.5942 49.4625 45.931 46.9624 43.4185 42.2761C53.1057 38.2237 61.8832 32.7864 68.7502 23.8953C62.5799 28.1154 55.6088 27.4179 51.5761 23.1434C58.2506 18.0211 64.0574 12.1499 68.3208 4.67902C63.2976 7.33148 56.3724 10.136 51.687 7.83394C54.3699 5.08191 56.0802 2.21963 56.5769 0.000140682H41.0148V0ZM43.7623 13.0184C42.5315 24.3637 32.6667 33.2061 20.6798 33.2061C11.6358 33.2061 3.83123 28.1498 0 20.8048V37.1707C8.34957 44.2308 20.7087 45.746 30.8357 40.0572C40.8405 34.4368 45.6855 23.4751 43.7622 13.0182L43.7623 13.0184Z" fill="white"/>
</svg>
