<svg xmlns="http://www.w3.org/2000/svg" width="300" zoomAndPan="magnify" viewBox="0 0 375 374.999991" height="300"
     preserveAspectRatio="xMidYMid meet" version="1.0"><defs><g/></defs><g fill="#004aad" fill-opacity="0.4"><g transform="translate(87.630799, 148.550769)"><g><path d="M 8.640625 -9.109375 L 9.015625 -5.875 L 9.59375 -8.734375 L 14.21875 -28.90625 L 17.25 -28.90625 L 21.734375 -8.734375 L 22.3125 -5.796875 L 22.734375 -9.125 L 26.265625 -28.90625 L 29.890625 -28.90625 L 24.140625 0 L 20.859375 0 L 16.046875 -21.0625 L 15.75 -22.765625 L 15.4375 -21.0625 L 10.4375 0 L 7.140625 0 L 1.40625 -28.90625 L 5.046875 -28.90625 Z M 8.640625 -9.109375 "/></g></g></g><g fill="#004aad" fill-opacity="0.4"><g transform="translate(118.587523, 148.550769)"><g><path d="M 21.921875 -11.90625 C 21.921875 -7.96875 21.078125 -4.929688 19.390625 -2.796875 C 17.710938 -0.671875 15.328125 0.390625 12.234375 0.390625 C 9.253906 0.390625 6.898438 -0.640625 5.171875 -2.703125 C 3.441406 -4.773438 2.546875 -7.707031 2.484375 -11.5 L 2.484375 -16.9375 C 2.484375 -20.800781 3.335938 -23.828125 5.046875 -26.015625 C 6.753906 -28.203125 9.132812 -29.296875 12.1875 -29.296875 C 15.226562 -29.296875 17.597656 -28.25 19.296875 -26.15625 C 21.003906 -24.0625 21.878906 -21.066406 21.921875 -17.171875 Z M 18.28125 -16.96875 C 18.28125 -20.03125 17.78125 -22.304688 16.78125 -23.796875 C 15.78125 -25.285156 14.25 -26.03125 12.1875 -26.03125 C 10.1875 -26.03125 8.671875 -25.273438 7.640625 -23.765625 C 6.617188 -22.253906 6.101562 -20.03125 6.09375 -17.09375 L 6.09375 -11.90625 C 6.09375 -8.957031 6.601562 -6.707031 7.625 -5.15625 C 8.65625 -3.613281 10.1875 -2.84375 12.21875 -2.84375 C 14.257812 -2.84375 15.769531 -3.554688 16.75 -4.984375 C 17.726562 -6.410156 18.238281 -8.597656 18.28125 -11.546875 Z M 18.28125 -16.96875 "/></g></g></g><g fill="#004aad" fill-opacity="0.4"><g transform="translate(142.995709, 148.550769)"><g><path d="M 21.921875 -11.90625 C 21.921875 -7.96875 21.078125 -4.929688 19.390625 -2.796875 C 17.710938 -0.671875 15.328125 0.390625 12.234375 0.390625 C 9.253906 0.390625 6.898438 -0.640625 5.171875 -2.703125 C 3.441406 -4.773438 2.546875 -7.707031 2.484375 -11.5 L 2.484375 -16.9375 C 2.484375 -20.800781 3.335938 -23.828125 5.046875 -26.015625 C 6.753906 -28.203125 9.132812 -29.296875 12.1875 -29.296875 C 15.226562 -29.296875 17.597656 -28.25 19.296875 -26.15625 C 21.003906 -24.0625 21.878906 -21.066406 21.921875 -17.171875 Z M 18.28125 -16.96875 C 18.28125 -20.03125 17.78125 -22.304688 16.78125 -23.796875 C 15.78125 -25.285156 14.25 -26.03125 12.1875 -26.03125 C 10.1875 -26.03125 8.671875 -25.273438 7.640625 -23.765625 C 6.617188 -22.253906 6.101562 -20.03125 6.09375 -17.09375 L 6.09375 -11.90625 C 6.09375 -8.957031 6.601562 -6.707031 7.625 -5.15625 C 8.65625 -3.613281 10.1875 -2.84375 12.21875 -2.84375 C 14.257812 -2.84375 15.769531 -3.554688 16.75 -4.984375 C 17.726562 -6.410156 18.238281 -8.597656 18.28125 -11.546875 Z M 18.28125 -16.96875 "/></g></g></g><g fill="#004aad" fill-opacity="0.4"><g transform="translate(167.403895, 148.550769)"><g><path d="M 3.109375 0 L 3.109375 -28.90625 L 10 -28.90625 C 13.375 -28.90625 15.992188 -27.847656 17.859375 -25.734375 C 19.734375 -23.628906 20.671875 -20.660156 20.671875 -16.828125 L 20.671875 -11.984375 C 20.671875 -8.160156 19.722656 -5.207031 17.828125 -3.125 C 15.929688 -1.039062 13.1875 0 9.59375 0 Z M 6.75 -25.765625 L 6.75 -3.109375 L 9.671875 -3.109375 C 12.222656 -3.109375 14.085938 -3.835938 15.265625 -5.296875 C 16.441406 -6.765625 17.046875 -8.9375 17.078125 -11.8125 L 17.078125 -16.9375 C 17.078125 -19.976562 16.488281 -22.207031 15.3125 -23.625 C 14.144531 -25.050781 12.375 -25.765625 10 -25.765625 Z M 6.75 -25.765625 "/></g></g></g><g fill="#004aad" fill-opacity="0.4"><g transform="translate(190.601594, 148.550769)"><g><path d="M 21.234375 -9.171875 C 21.078125 -6.078125 20.207031 -3.707031 18.625 -2.0625 C 17.050781 -0.425781 14.820312 0.390625 11.9375 0.390625 C 9.03125 0.390625 6.722656 -0.707031 5.015625 -2.90625 C 3.316406 -5.113281 2.46875 -8.101562 2.46875 -11.875 L 2.46875 -17.109375 C 2.46875 -20.867188 3.34375 -23.835938 5.09375 -26.015625 C 6.84375 -28.203125 9.234375 -29.296875 12.265625 -29.296875 C 15.054688 -29.296875 17.21875 -28.457031 18.75 -26.78125 C 20.28125 -25.113281 21.109375 -22.722656 21.234375 -19.609375 L 17.5625 -19.609375 C 17.40625 -21.960938 16.910156 -23.644531 16.078125 -24.65625 C 15.242188 -25.664062 13.972656 -26.171875 12.265625 -26.171875 C 10.296875 -26.171875 8.78125 -25.398438 7.71875 -23.859375 C 6.664062 -22.316406 6.140625 -20.054688 6.140625 -17.078125 L 6.140625 -11.765625 C 6.140625 -8.847656 6.628906 -6.609375 7.609375 -5.046875 C 8.597656 -3.484375 10.035156 -2.703125 11.921875 -2.703125 C 13.816406 -2.703125 15.179688 -3.171875 16.015625 -4.109375 C 16.847656 -5.046875 17.363281 -6.734375 17.5625 -9.171875 Z M 21.234375 -9.171875 "/></g></g></g><g fill="#004aad" fill-opacity="0.4"><g transform="translate(213.64054, 148.550769)"><g><path d="M 22.03125 0 L 18.375 0 L 18.375 -13.359375 L 6.75 -13.359375 L 6.75 0 L 3.109375 0 L 3.109375 -28.90625 L 6.75 -28.90625 L 6.75 -16.484375 L 18.375 -16.484375 L 18.375 -28.90625 L 22.03125 -28.90625 Z M 22.03125 0 "/></g></g></g><g fill="#004aad" fill-opacity="0.4"><g transform="translate(238.842488, 148.550769)"><g><path d="M 20.34375 -28.90625 L 20.34375 -8.359375 C 20.320312 -5.617188 19.53125 -3.472656 17.96875 -1.921875 C 16.40625 -0.378906 14.226562 0.390625 11.4375 0.390625 C 8.570312 0.390625 6.382812 -0.363281 4.875 -1.875 C 3.375 -3.394531 2.609375 -5.554688 2.578125 -8.359375 L 2.578125 -28.90625 L 6.1875 -28.90625 L 6.1875 -8.5 C 6.1875 -6.550781 6.597656 -5.097656 7.421875 -4.140625 C 8.253906 -3.179688 9.59375 -2.703125 11.4375 -2.703125 C 13.289062 -2.703125 14.628906 -3.179688 15.453125 -4.140625 C 16.273438 -5.097656 16.6875 -6.550781 16.6875 -8.5 L 16.6875 -28.90625 Z M 20.34375 -28.90625 "/></g></g></g><g fill="#004aad" fill-opacity="0.4"><g transform="translate(261.66315, 148.550769)"><g><path d="M 21.234375 -9.171875 C 21.078125 -6.078125 20.207031 -3.707031 18.625 -2.0625 C 17.050781 -0.425781 14.820312 0.390625 11.9375 0.390625 C 9.03125 0.390625 6.722656 -0.707031 5.015625 -2.90625 C 3.316406 -5.113281 2.46875 -8.101562 2.46875 -11.875 L 2.46875 -17.109375 C 2.46875 -20.867188 3.34375 -23.835938 5.09375 -26.015625 C 6.84375 -28.203125 9.234375 -29.296875 12.265625 -29.296875 C 15.054688 -29.296875 17.21875 -28.457031 18.75 -26.78125 C 20.28125 -25.113281 21.109375 -22.722656 21.234375 -19.609375 L 17.5625 -19.609375 C 17.40625 -21.960938 16.910156 -23.644531 16.078125 -24.65625 C 15.242188 -25.664062 13.972656 -26.171875 12.265625 -26.171875 C 10.296875 -26.171875 8.78125 -25.398438 7.71875 -23.859375 C 6.664062 -22.316406 6.140625 -20.054688 6.140625 -17.078125 L 6.140625 -11.765625 C 6.140625 -8.847656 6.628906 -6.609375 7.609375 -5.046875 C 8.597656 -3.484375 10.035156 -2.703125 11.921875 -2.703125 C 13.816406 -2.703125 15.179688 -3.171875 16.015625 -4.109375 C 16.847656 -5.046875 17.363281 -6.734375 17.5625 -9.171875 Z M 21.234375 -9.171875 "/></g></g></g><g fill="#004aad" fill-opacity="0.4"><g transform="translate(284.702096, 148.550769)"><g><path d="M 9.59375 -13.328125 L 6.75 -9.890625 L 6.75 0 L 3.109375 0 L 3.109375 -28.90625 L 6.75 -28.90625 L 6.75 -14.953125 L 9.125 -18.109375 L 16.90625 -28.90625 L 21.28125 -28.90625 L 11.890625 -16.171875 L 22.015625 0 L 17.671875 0 Z M 9.59375 -13.328125 "/></g></g></g><g fill="#004aad" fill-opacity="1"><g transform="translate(85.834269, 146.75424)"><g><path d="M 8.640625 -9.109375 L 9.015625 -5.875 L 9.59375 -8.734375 L 14.21875 -28.90625 L 17.25 -28.90625 L 21.734375 -8.734375 L 22.3125 -5.796875 L 22.734375 -9.125 L 26.265625 -28.90625 L 29.890625 -28.90625 L 24.140625 0 L 20.859375 0 L 16.046875 -21.0625 L 15.75 -22.765625 L 15.4375 -21.0625 L 10.4375 0 L 7.140625 0 L 1.40625 -28.90625 L 5.046875 -28.90625 Z M 8.640625 -9.109375 "/></g></g></g><g fill="#004aad" fill-opacity="1"><g transform="translate(116.790993, 146.75424)"><g><path d="M 21.921875 -11.90625 C 21.921875 -7.96875 21.078125 -4.929688 19.390625 -2.796875 C 17.710938 -0.671875 15.328125 0.390625 12.234375 0.390625 C 9.253906 0.390625 6.898438 -0.640625 5.171875 -2.703125 C 3.441406 -4.773438 2.546875 -7.707031 2.484375 -11.5 L 2.484375 -16.9375 C 2.484375 -20.800781 3.335938 -23.828125 5.046875 -26.015625 C 6.753906 -28.203125 9.132812 -29.296875 12.1875 -29.296875 C 15.226562 -29.296875 17.597656 -28.25 19.296875 -26.15625 C 21.003906 -24.0625 21.878906 -21.066406 21.921875 -17.171875 Z M 18.28125 -16.96875 C 18.28125 -20.03125 17.78125 -22.304688 16.78125 -23.796875 C 15.78125 -25.285156 14.25 -26.03125 12.1875 -26.03125 C 10.1875 -26.03125 8.671875 -25.273438 7.640625 -23.765625 C 6.617188 -22.253906 6.101562 -20.03125 6.09375 -17.09375 L 6.09375 -11.90625 C 6.09375 -8.957031 6.601562 -6.707031 7.625 -5.15625 C 8.65625 -3.613281 10.1875 -2.84375 12.21875 -2.84375 C 14.257812 -2.84375 15.769531 -3.554688 16.75 -4.984375 C 17.726562 -6.410156 18.238281 -8.597656 18.28125 -11.546875 Z M 18.28125 -16.96875 "/></g></g></g><g fill="#004aad" fill-opacity="1"><g transform="translate(141.199179, 146.75424)"><g><path d="M 21.921875 -11.90625 C 21.921875 -7.96875 21.078125 -4.929688 19.390625 -2.796875 C 17.710938 -0.671875 15.328125 0.390625 12.234375 0.390625 C 9.253906 0.390625 6.898438 -0.640625 5.171875 -2.703125 C 3.441406 -4.773438 2.546875 -7.707031 2.484375 -11.5 L 2.484375 -16.9375 C 2.484375 -20.800781 3.335938 -23.828125 5.046875 -26.015625 C 6.753906 -28.203125 9.132812 -29.296875 12.1875 -29.296875 C 15.226562 -29.296875 17.597656 -28.25 19.296875 -26.15625 C 21.003906 -24.0625 21.878906 -21.066406 21.921875 -17.171875 Z M 18.28125 -16.96875 C 18.28125 -20.03125 17.78125 -22.304688 16.78125 -23.796875 C 15.78125 -25.285156 14.25 -26.03125 12.1875 -26.03125 C 10.1875 -26.03125 8.671875 -25.273438 7.640625 -23.765625 C 6.617188 -22.253906 6.101562 -20.03125 6.09375 -17.09375 L 6.09375 -11.90625 C 6.09375 -8.957031 6.601562 -6.707031 7.625 -5.15625 C 8.65625 -3.613281 10.1875 -2.84375 12.21875 -2.84375 C 14.257812 -2.84375 15.769531 -3.554688 16.75 -4.984375 C 17.726562 -6.410156 18.238281 -8.597656 18.28125 -11.546875 Z M 18.28125 -16.96875 "/></g></g></g><g fill="#004aad" fill-opacity="1"><g transform="translate(165.607365, 146.75424)"><g><path d="M 3.109375 0 L 3.109375 -28.90625 L 10 -28.90625 C 13.375 -28.90625 15.992188 -27.847656 17.859375 -25.734375 C 19.734375 -23.628906 20.671875 -20.660156 20.671875 -16.828125 L 20.671875 -11.984375 C 20.671875 -8.160156 19.722656 -5.207031 17.828125 -3.125 C 15.929688 -1.039062 13.1875 0 9.59375 0 Z M 6.75 -25.765625 L 6.75 -3.109375 L 9.671875 -3.109375 C 12.222656 -3.109375 14.085938 -3.835938 15.265625 -5.296875 C 16.441406 -6.765625 17.046875 -8.9375 17.078125 -11.8125 L 17.078125 -16.9375 C 17.078125 -19.976562 16.488281 -22.207031 15.3125 -23.625 C 14.144531 -25.050781 12.375 -25.765625 10 -25.765625 Z M 6.75 -25.765625 "/></g></g></g><g fill="#004aad" fill-opacity="1"><g transform="translate(188.805064, 146.75424)"><g><path d="M 21.234375 -9.171875 C 21.078125 -6.078125 20.207031 -3.707031 18.625 -2.0625 C 17.050781 -0.425781 14.820312 0.390625 11.9375 0.390625 C 9.03125 0.390625 6.722656 -0.707031 5.015625 -2.90625 C 3.316406 -5.113281 2.46875 -8.101562 2.46875 -11.875 L 2.46875 -17.109375 C 2.46875 -20.867188 3.34375 -23.835938 5.09375 -26.015625 C 6.84375 -28.203125 9.234375 -29.296875 12.265625 -29.296875 C 15.054688 -29.296875 17.21875 -28.457031 18.75 -26.78125 C 20.28125 -25.113281 21.109375 -22.722656 21.234375 -19.609375 L 17.5625 -19.609375 C 17.40625 -21.960938 16.910156 -23.644531 16.078125 -24.65625 C 15.242188 -25.664062 13.972656 -26.171875 12.265625 -26.171875 C 10.296875 -26.171875 8.78125 -25.398438 7.71875 -23.859375 C 6.664062 -22.316406 6.140625 -20.054688 6.140625 -17.078125 L 6.140625 -11.765625 C 6.140625 -8.847656 6.628906 -6.609375 7.609375 -5.046875 C 8.597656 -3.484375 10.035156 -2.703125 11.921875 -2.703125 C 13.816406 -2.703125 15.179688 -3.171875 16.015625 -4.109375 C 16.847656 -5.046875 17.363281 -6.734375 17.5625 -9.171875 Z M 21.234375 -9.171875 "/></g></g></g><g fill="#004aad" fill-opacity="1"><g transform="translate(211.84401, 146.75424)"><g><path d="M 22.03125 0 L 18.375 0 L 18.375 -13.359375 L 6.75 -13.359375 L 6.75 0 L 3.109375 0 L 3.109375 -28.90625 L 6.75 -28.90625 L 6.75 -16.484375 L 18.375 -16.484375 L 18.375 -28.90625 L 22.03125 -28.90625 Z M 22.03125 0 "/></g></g></g><g fill="#004aad" fill-opacity="1"><g transform="translate(237.045958, 146.75424)"><g><path d="M 20.34375 -28.90625 L 20.34375 -8.359375 C 20.320312 -5.617188 19.53125 -3.472656 17.96875 -1.921875 C 16.40625 -0.378906 14.226562 0.390625 11.4375 0.390625 C 8.570312 0.390625 6.382812 -0.363281 4.875 -1.875 C 3.375 -3.394531 2.609375 -5.554688 2.578125 -8.359375 L 2.578125 -28.90625 L 6.1875 -28.90625 L 6.1875 -8.5 C 6.1875 -6.550781 6.597656 -5.097656 7.421875 -4.140625 C 8.253906 -3.179688 9.59375 -2.703125 11.4375 -2.703125 C 13.289062 -2.703125 14.628906 -3.179688 15.453125 -4.140625 C 16.273438 -5.097656 16.6875 -6.550781 16.6875 -8.5 L 16.6875 -28.90625 Z M 20.34375 -28.90625 "/></g></g></g><g fill="#004aad" fill-opacity="1"><g transform="translate(259.86662, 146.75424)"><g><path d="M 21.234375 -9.171875 C 21.078125 -6.078125 20.207031 -3.707031 18.625 -2.0625 C 17.050781 -0.425781 14.820312 0.390625 11.9375 0.390625 C 9.03125 0.390625 6.722656 -0.707031 5.015625 -2.90625 C 3.316406 -5.113281 2.46875 -8.101562 2.46875 -11.875 L 2.46875 -17.109375 C 2.46875 -20.867188 3.34375 -23.835938 5.09375 -26.015625 C 6.84375 -28.203125 9.234375 -29.296875 12.265625 -29.296875 C 15.054688 -29.296875 17.21875 -28.457031 18.75 -26.78125 C 20.28125 -25.113281 21.109375 -22.722656 21.234375 -19.609375 L 17.5625 -19.609375 C 17.40625 -21.960938 16.910156 -23.644531 16.078125 -24.65625 C 15.242188 -25.664062 13.972656 -26.171875 12.265625 -26.171875 C 10.296875 -26.171875 8.78125 -25.398438 7.71875 -23.859375 C 6.664062 -22.316406 6.140625 -20.054688 6.140625 -17.078125 L 6.140625 -11.765625 C 6.140625 -8.847656 6.628906 -6.609375 7.609375 -5.046875 C 8.597656 -3.484375 10.035156 -2.703125 11.921875 -2.703125 C 13.816406 -2.703125 15.179688 -3.171875 16.015625 -4.109375 C 16.847656 -5.046875 17.363281 -6.734375 17.5625 -9.171875 Z M 21.234375 -9.171875 "/></g></g></g><g fill="#004aad" fill-opacity="1"><g transform="translate(282.905566, 146.75424)"><g><path d="M 9.59375 -13.328125 L 6.75 -9.890625 L 6.75 0 L 3.109375 0 L 3.109375 -28.90625 L 6.75 -28.90625 L 6.75 -14.953125 L 9.125 -18.109375 L 16.90625 -28.90625 L 21.28125 -28.90625 L 11.890625 -16.171875 L 22.015625 0 L 17.671875 0 Z M 9.59375 -13.328125 "/></g></g></g><g fill="#004aad" fill-opacity="0.4"><g transform="translate(87.52533, 177.800768)"><g><path d="M 11.859375 -5.5 C 11.859375 -6.59375 11.5625 -7.425781 10.96875 -8 C 10.382812 -8.582031 9.320312 -9.144531 7.78125 -9.6875 C 6.25 -10.238281 5.078125 -10.816406 4.265625 -11.421875 C 3.453125 -12.023438 2.84375 -12.710938 2.4375 -13.484375 C 2.039062 -14.253906 1.84375 -15.140625 1.84375 -16.140625 C 1.84375 -17.867188 2.414062 -19.289062 3.5625 -20.40625 C 4.71875 -21.519531 6.226562 -22.078125 8.09375 -22.078125 C 9.375 -22.078125 10.507812 -21.789062 11.5 -21.21875 C 12.5 -20.644531 13.265625 -19.847656 13.796875 -18.828125 C 14.335938 -17.816406 14.609375 -16.703125 14.609375 -15.484375 L 11.859375 -15.484375 C 11.859375 -16.828125 11.535156 -17.867188 10.890625 -18.609375 C 10.242188 -19.347656 9.3125 -19.71875 8.09375 -19.71875 C 6.988281 -19.71875 6.128906 -19.40625 5.515625 -18.78125 C 4.910156 -18.164062 4.609375 -17.300781 4.609375 -16.1875 C 4.609375 -15.269531 4.9375 -14.5 5.59375 -13.875 C 6.25 -13.257812 7.265625 -12.707031 8.640625 -12.21875 C 10.785156 -11.507812 12.316406 -10.632812 13.234375 -9.59375 C 14.160156 -8.5625 14.625 -7.207031 14.625 -5.53125 C 14.625 -3.769531 14.050781 -2.359375 12.90625 -1.296875 C 11.757812 -0.234375 10.203125 0.296875 8.234375 0.296875 C 6.960938 0.296875 5.789062 0.0195312 4.71875 -0.53125 C 3.644531 -1.082031 2.800781 -1.859375 2.1875 -2.859375 C 1.570312 -3.867188 1.265625 -5.019531 1.265625 -6.3125 L 4.03125 -6.3125 C 4.03125 -4.96875 4.40625 -3.921875 5.15625 -3.171875 C 5.90625 -2.421875 6.929688 -2.046875 8.234375 -2.046875 C 9.429688 -2.046875 10.332031 -2.351562 10.9375 -2.96875 C 11.550781 -3.59375 11.859375 -4.4375 11.859375 -5.5 Z M 11.859375 -5.5 "/></g></g></g><g fill="#004aad" fill-opacity="0.4"><g transform="translate(103.401237, 177.800768)"><g><path d="M 15.078125 -19.421875 L 9.34375 -19.421875 L 9.34375 0 L 6.609375 0 L 6.609375 -19.421875 L 0.890625 -19.421875 L 0.890625 -21.78125 L 15.078125 -21.78125 Z M 15.078125 -19.421875 "/></g></g></g><g fill="#004aad" fill-opacity="0.4"><g transform="translate(119.351954, 177.800768)"><g><path d="M 15.328125 -21.78125 L 15.328125 -6.296875 C 15.316406 -4.234375 14.722656 -2.617188 13.546875 -1.453125 C 12.367188 -0.285156 10.726562 0.296875 8.625 0.296875 C 6.46875 0.296875 4.816406 -0.269531 3.671875 -1.40625 C 2.535156 -2.550781 1.957031 -4.179688 1.9375 -6.296875 L 1.9375 -21.78125 L 4.671875 -21.78125 L 4.671875 -6.40625 C 4.671875 -4.9375 4.976562 -3.835938 5.59375 -3.109375 C 6.21875 -2.390625 7.226562 -2.03125 8.625 -2.03125 C 10.019531 -2.03125 11.023438 -2.390625 11.640625 -3.109375 C 12.265625 -3.835938 12.578125 -4.9375 12.578125 -6.40625 L 12.578125 -21.78125 Z M 15.328125 -21.78125 "/></g></g></g><g fill="#004aad" fill-opacity="0.4"><g transform="translate(136.559575, 177.800768)"><g><path d="M 5.875 -21.78125 L 11.5625 -4.015625 L 17.25 -21.78125 L 20.78125 -21.78125 L 20.78125 0 L 18.046875 0 L 18.046875 -8.484375 L 18.296875 -16.984375 L 12.59375 0 L 10.5 0 L 4.828125 -16.921875 L 5.09375 -8.484375 L 5.09375 0 L 2.34375 0 L 2.34375 -21.78125 Z M 5.875 -21.78125 "/></g></g></g><g fill="#004aad" fill-opacity="0.4"><g transform="translate(159.707572, 177.800768)"><g><path d="M 5.09375 -8.53125 L 5.09375 0 L 2.34375 0 L 2.34375 -21.78125 L 9.296875 -21.78125 C 11.316406 -21.78125 12.90625 -21.171875 14.0625 -19.953125 C 15.21875 -18.742188 15.796875 -17.132812 15.796875 -15.125 C 15.796875 -13.03125 15.242188 -11.414062 14.140625 -10.28125 C 13.046875 -9.15625 11.492188 -8.570312 9.484375 -8.53125 Z M 5.09375 -10.875 L 9.296875 -10.875 C 10.503906 -10.875 11.429688 -11.238281 12.078125 -11.96875 C 12.734375 -12.695312 13.0625 -13.738281 13.0625 -15.09375 C 13.0625 -16.40625 12.726562 -17.453125 12.0625 -18.234375 C 11.394531 -19.023438 10.476562 -19.421875 9.3125 -19.421875 L 5.09375 -19.421875 Z M 5.09375 -10.875 "/></g></g></g><g fill="#004aad" fill-opacity="0.4"><g transform="translate(176.690752, 177.800768)"><g/></g></g><g fill="#004aad" fill-opacity="0.4"><g transform="translate(183.708475, 177.800768)"><g><path d="M 15.984375 -2.703125 L 15.5 -2.109375 C 14.125 -0.503906 12.109375 0.296875 9.453125 0.296875 C 7.097656 0.296875 5.25 -0.484375 3.90625 -2.046875 C 2.570312 -3.609375 1.890625 -5.8125 1.859375 -8.65625 L 1.859375 -12.9375 C 1.859375 -15.988281 2.46875 -18.273438 3.6875 -19.796875 C 4.90625 -21.316406 6.734375 -22.078125 9.171875 -22.078125 C 11.242188 -22.078125 12.863281 -21.5 14.03125 -20.34375 C 15.207031 -19.1875 15.859375 -17.535156 15.984375 -15.390625 L 13.234375 -15.390625 C 13.128906 -16.753906 12.753906 -17.816406 12.109375 -18.578125 C 11.460938 -19.335938 10.488281 -19.71875 9.1875 -19.71875 C 7.625 -19.71875 6.476562 -19.207031 5.75 -18.1875 C 5.019531 -17.164062 4.640625 -15.53125 4.609375 -13.28125 L 4.609375 -8.84375 C 4.609375 -6.644531 5.023438 -4.957031 5.859375 -3.78125 C 6.703125 -2.613281 7.90625 -2.03125 9.46875 -2.03125 C 10.945312 -2.03125 12.070312 -2.390625 12.84375 -3.109375 L 13.234375 -3.484375 L 13.234375 -8.515625 L 9.265625 -8.515625 L 9.265625 -10.84375 L 15.984375 -10.84375 Z M 15.984375 -2.703125 "/></g></g></g><g fill="#004aad" fill-opacity="0.4"><g transform="translate(201.813885, 177.800768)"><g><path d="M 8.9375 -8.8125 L 5.109375 -8.8125 L 5.109375 0 L 2.34375 0 L 2.34375 -21.78125 L 8.453125 -21.78125 C 10.585938 -21.78125 12.203125 -21.222656 13.296875 -20.109375 C 14.398438 -19.003906 14.953125 -17.378906 14.953125 -15.234375 C 14.953125 -13.878906 14.65625 -12.703125 14.0625 -11.703125 C 13.46875 -10.703125 12.625 -9.945312 11.53125 -9.4375 L 15.75 -0.171875 L 15.75 0 L 12.8125 0 Z M 5.109375 -11.15625 L 8.421875 -11.15625 C 9.566406 -11.15625 10.476562 -11.523438 11.15625 -12.265625 C 11.84375 -13.003906 12.1875 -13.992188 12.1875 -15.234375 C 12.1875 -18.023438 10.921875 -19.421875 8.390625 -19.421875 L 5.109375 -19.421875 Z M 5.109375 -11.15625 "/></g></g></g><g fill="#004aad" fill-opacity="0.4"><g transform="translate(218.078834, 177.800768)"><g><path d="M 5.203125 0 L 2.46875 0 L 2.46875 -21.78125 L 5.203125 -21.78125 Z M 5.203125 0 "/></g></g></g><g fill="#004aad" fill-opacity="0.4"><g transform="translate(225.739966, 177.800768)"><g><path d="M 16.578125 0 L 13.828125 0 L 5.109375 -16.78125 L 5.109375 0 L 2.34375 0 L 2.34375 -21.78125 L 5.109375 -21.78125 L 13.859375 -4.921875 L 13.859375 -21.78125 L 16.578125 -21.78125 Z M 16.578125 0 "/></g></g></g><g fill="#004aad" fill-opacity="0.4"><g transform="translate(244.713239, 177.800768)"><g><path d="M 2.34375 0 L 2.34375 -21.78125 L 7.546875 -21.78125 C 10.085938 -21.78125 12.0625 -20.984375 13.46875 -19.390625 C 14.875 -17.804688 15.578125 -15.570312 15.578125 -12.6875 L 15.578125 -9.03125 C 15.578125 -6.15625 14.863281 -3.929688 13.4375 -2.359375 C 12.007812 -0.785156 9.9375 0 7.21875 0 Z M 5.09375 -19.421875 L 5.09375 -2.34375 L 7.28125 -2.34375 C 9.207031 -2.34375 10.613281 -2.894531 11.5 -4 C 12.394531 -5.101562 12.847656 -6.738281 12.859375 -8.90625 L 12.859375 -12.765625 C 12.859375 -15.054688 12.414062 -16.738281 11.53125 -17.8125 C 10.65625 -18.882812 9.328125 -19.421875 7.546875 -19.421875 Z M 5.09375 -19.421875 "/></g></g></g><g fill="#004aad" fill-opacity="0.4"><g transform="translate(262.205167, 177.800768)"><g><path d="M 5.203125 0 L 2.46875 0 L 2.46875 -21.78125 L 5.203125 -21.78125 Z M 5.203125 0 "/></g></g></g><g fill="#004aad" fill-opacity="0.4"><g transform="translate(269.866299, 177.800768)"><g><path d="M 16.578125 0 L 13.828125 0 L 5.109375 -16.78125 L 5.109375 0 L 2.34375 0 L 2.34375 -21.78125 L 5.109375 -21.78125 L 13.859375 -4.921875 L 13.859375 -21.78125 L 16.578125 -21.78125 Z M 16.578125 0 "/></g></g></g><g fill="#004aad" fill-opacity="0.4"><g transform="translate(288.839572, 177.800768)"><g><path d="M 15.984375 -2.703125 L 15.5 -2.109375 C 14.125 -0.503906 12.109375 0.296875 9.453125 0.296875 C 7.097656 0.296875 5.25 -0.484375 3.90625 -2.046875 C 2.570312 -3.609375 1.890625 -5.8125 1.859375 -8.65625 L 1.859375 -12.9375 C 1.859375 -15.988281 2.46875 -18.273438 3.6875 -19.796875 C 4.90625 -21.316406 6.734375 -22.078125 9.171875 -22.078125 C 11.242188 -22.078125 12.863281 -21.5 14.03125 -20.34375 C 15.207031 -19.1875 15.859375 -17.535156 15.984375 -15.390625 L 13.234375 -15.390625 C 13.128906 -16.753906 12.753906 -17.816406 12.109375 -18.578125 C 11.460938 -19.335938 10.488281 -19.71875 9.1875 -19.71875 C 7.625 -19.71875 6.476562 -19.207031 5.75 -18.1875 C 5.019531 -17.164062 4.640625 -15.53125 4.609375 -13.28125 L 4.609375 -8.84375 C 4.609375 -6.644531 5.023438 -4.957031 5.859375 -3.78125 C 6.703125 -2.613281 7.90625 -2.03125 9.46875 -2.03125 C 10.945312 -2.03125 12.070312 -2.390625 12.84375 -3.109375 L 13.234375 -3.484375 L 13.234375 -8.515625 L 9.265625 -8.515625 L 9.265625 -10.84375 L 15.984375 -10.84375 Z M 15.984375 -2.703125 "/></g></g></g><g fill="#004aad" fill-opacity="1"><g transform="translate(85.7288, 176.004238)"><g><path d="M 11.859375 -5.5 C 11.859375 -6.59375 11.5625 -7.425781 10.96875 -8 C 10.382812 -8.582031 9.320312 -9.144531 7.78125 -9.6875 C 6.25 -10.238281 5.078125 -10.816406 4.265625 -11.421875 C 3.453125 -12.023438 2.84375 -12.710938 2.4375 -13.484375 C 2.039062 -14.253906 1.84375 -15.140625 1.84375 -16.140625 C 1.84375 -17.867188 2.414062 -19.289062 3.5625 -20.40625 C 4.71875 -21.519531 6.226562 -22.078125 8.09375 -22.078125 C 9.375 -22.078125 10.507812 -21.789062 11.5 -21.21875 C 12.5 -20.644531 13.265625 -19.847656 13.796875 -18.828125 C 14.335938 -17.816406 14.609375 -16.703125 14.609375 -15.484375 L 11.859375 -15.484375 C 11.859375 -16.828125 11.535156 -17.867188 10.890625 -18.609375 C 10.242188 -19.347656 9.3125 -19.71875 8.09375 -19.71875 C 6.988281 -19.71875 6.128906 -19.40625 5.515625 -18.78125 C 4.910156 -18.164062 4.609375 -17.300781 4.609375 -16.1875 C 4.609375 -15.269531 4.9375 -14.5 5.59375 -13.875 C 6.25 -13.257812 7.265625 -12.707031 8.640625 -12.21875 C 10.785156 -11.507812 12.316406 -10.632812 13.234375 -9.59375 C 14.160156 -8.5625 14.625 -7.207031 14.625 -5.53125 C 14.625 -3.769531 14.050781 -2.359375 12.90625 -1.296875 C 11.757812 -0.234375 10.203125 0.296875 8.234375 0.296875 C 6.960938 0.296875 5.789062 0.0195312 4.71875 -0.53125 C 3.644531 -1.082031 2.800781 -1.859375 2.1875 -2.859375 C 1.570312 -3.867188 1.265625 -5.019531 1.265625 -6.3125 L 4.03125 -6.3125 C 4.03125 -4.96875 4.40625 -3.921875 5.15625 -3.171875 C 5.90625 -2.421875 6.929688 -2.046875 8.234375 -2.046875 C 9.429688 -2.046875 10.332031 -2.351562 10.9375 -2.96875 C 11.550781 -3.59375 11.859375 -4.4375 11.859375 -5.5 Z M 11.859375 -5.5 "/></g></g></g><g fill="#004aad" fill-opacity="1"><g transform="translate(101.604707, 176.004238)"><g><path d="M 15.078125 -19.421875 L 9.34375 -19.421875 L 9.34375 0 L 6.609375 0 L 6.609375 -19.421875 L 0.890625 -19.421875 L 0.890625 -21.78125 L 15.078125 -21.78125 Z M 15.078125 -19.421875 "/></g></g></g><g fill="#004aad" fill-opacity="1"><g transform="translate(117.555424, 176.004238)"><g><path d="M 15.328125 -21.78125 L 15.328125 -6.296875 C 15.316406 -4.234375 14.722656 -2.617188 13.546875 -1.453125 C 12.367188 -0.285156 10.726562 0.296875 8.625 0.296875 C 6.46875 0.296875 4.816406 -0.269531 3.671875 -1.40625 C 2.535156 -2.550781 1.957031 -4.179688 1.9375 -6.296875 L 1.9375 -21.78125 L 4.671875 -21.78125 L 4.671875 -6.40625 C 4.671875 -4.9375 4.976562 -3.835938 5.59375 -3.109375 C 6.21875 -2.390625 7.226562 -2.03125 8.625 -2.03125 C 10.019531 -2.03125 11.023438 -2.390625 11.640625 -3.109375 C 12.265625 -3.835938 12.578125 -4.9375 12.578125 -6.40625 L 12.578125 -21.78125 Z M 15.328125 -21.78125 "/></g></g></g><g fill="#004aad" fill-opacity="1"><g transform="translate(134.763045, 176.004238)"><g><path d="M 5.875 -21.78125 L 11.5625 -4.015625 L 17.25 -21.78125 L 20.78125 -21.78125 L 20.78125 0 L 18.046875 0 L 18.046875 -8.484375 L 18.296875 -16.984375 L 12.59375 0 L 10.5 0 L 4.828125 -16.921875 L 5.09375 -8.484375 L 5.09375 0 L 2.34375 0 L 2.34375 -21.78125 Z M 5.875 -21.78125 "/></g></g></g><g fill="#004aad" fill-opacity="1"><g transform="translate(157.911042, 176.004238)"><g><path d="M 5.09375 -8.53125 L 5.09375 0 L 2.34375 0 L 2.34375 -21.78125 L 9.296875 -21.78125 C 11.316406 -21.78125 12.90625 -21.171875 14.0625 -19.953125 C 15.21875 -18.742188 15.796875 -17.132812 15.796875 -15.125 C 15.796875 -13.03125 15.242188 -11.414062 14.140625 -10.28125 C 13.046875 -9.15625 11.492188 -8.570312 9.484375 -8.53125 Z M 5.09375 -10.875 L 9.296875 -10.875 C 10.503906 -10.875 11.429688 -11.238281 12.078125 -11.96875 C 12.734375 -12.695312 13.0625 -13.738281 13.0625 -15.09375 C 13.0625 -16.40625 12.726562 -17.453125 12.0625 -18.234375 C 11.394531 -19.023438 10.476562 -19.421875 9.3125 -19.421875 L 5.09375 -19.421875 Z M 5.09375 -10.875 "/></g></g></g><g fill="#004aad" fill-opacity="1"><g transform="translate(174.894222, 176.004238)"><g/></g></g><g fill="#004aad" fill-opacity="1"><g transform="translate(181.911945, 176.004238)"><g><path d="M 15.984375 -2.703125 L 15.5 -2.109375 C 14.125 -0.503906 12.109375 0.296875 9.453125 0.296875 C 7.097656 0.296875 5.25 -0.484375 3.90625 -2.046875 C 2.570312 -3.609375 1.890625 -5.8125 1.859375 -8.65625 L 1.859375 -12.9375 C 1.859375 -15.988281 2.46875 -18.273438 3.6875 -19.796875 C 4.90625 -21.316406 6.734375 -22.078125 9.171875 -22.078125 C 11.242188 -22.078125 12.863281 -21.5 14.03125 -20.34375 C 15.207031 -19.1875 15.859375 -17.535156 15.984375 -15.390625 L 13.234375 -15.390625 C 13.128906 -16.753906 12.753906 -17.816406 12.109375 -18.578125 C 11.460938 -19.335938 10.488281 -19.71875 9.1875 -19.71875 C 7.625 -19.71875 6.476562 -19.207031 5.75 -18.1875 C 5.019531 -17.164062 4.640625 -15.53125 4.609375 -13.28125 L 4.609375 -8.84375 C 4.609375 -6.644531 5.023438 -4.957031 5.859375 -3.78125 C 6.703125 -2.613281 7.90625 -2.03125 9.46875 -2.03125 C 10.945312 -2.03125 12.070312 -2.390625 12.84375 -3.109375 L 13.234375 -3.484375 L 13.234375 -8.515625 L 9.265625 -8.515625 L 9.265625 -10.84375 L 15.984375 -10.84375 Z M 15.984375 -2.703125 "/></g></g></g><g fill="#004aad" fill-opacity="1"><g transform="translate(200.017355, 176.004238)"><g><path d="M 8.9375 -8.8125 L 5.109375 -8.8125 L 5.109375 0 L 2.34375 0 L 2.34375 -21.78125 L 8.453125 -21.78125 C 10.585938 -21.78125 12.203125 -21.222656 13.296875 -20.109375 C 14.398438 -19.003906 14.953125 -17.378906 14.953125 -15.234375 C 14.953125 -13.878906 14.65625 -12.703125 14.0625 -11.703125 C 13.46875 -10.703125 12.625 -9.945312 11.53125 -9.4375 L 15.75 -0.171875 L 15.75 0 L 12.8125 0 Z M 5.109375 -11.15625 L 8.421875 -11.15625 C 9.566406 -11.15625 10.476562 -11.523438 11.15625 -12.265625 C 11.84375 -13.003906 12.1875 -13.992188 12.1875 -15.234375 C 12.1875 -18.023438 10.921875 -19.421875 8.390625 -19.421875 L 5.109375 -19.421875 Z M 5.109375 -11.15625 "/></g></g></g><g fill="#004aad" fill-opacity="1"><g transform="translate(216.282304, 176.004238)"><g><path d="M 5.203125 0 L 2.46875 0 L 2.46875 -21.78125 L 5.203125 -21.78125 Z M 5.203125 0 "/></g></g></g><g fill="#004aad" fill-opacity="1"><g transform="translate(223.943437, 176.004238)"><g><path d="M 16.578125 0 L 13.828125 0 L 5.109375 -16.78125 L 5.109375 0 L 2.34375 0 L 2.34375 -21.78125 L 5.109375 -21.78125 L 13.859375 -4.921875 L 13.859375 -21.78125 L 16.578125 -21.78125 Z M 16.578125 0 "/></g></g></g><g fill="#004aad" fill-opacity="1"><g transform="translate(242.91671, 176.004238)"><g><path d="M 2.34375 0 L 2.34375 -21.78125 L 7.546875 -21.78125 C 10.085938 -21.78125 12.0625 -20.984375 13.46875 -19.390625 C 14.875 -17.804688 15.578125 -15.570312 15.578125 -12.6875 L 15.578125 -9.03125 C 15.578125 -6.15625 14.863281 -3.929688 13.4375 -2.359375 C 12.007812 -0.785156 9.9375 0 7.21875 0 Z M 5.09375 -19.421875 L 5.09375 -2.34375 L 7.28125 -2.34375 C 9.207031 -2.34375 10.613281 -2.894531 11.5 -4 C 12.394531 -5.101562 12.847656 -6.738281 12.859375 -8.90625 L 12.859375 -12.765625 C 12.859375 -15.054688 12.414062 -16.738281 11.53125 -17.8125 C 10.65625 -18.882812 9.328125 -19.421875 7.546875 -19.421875 Z M 5.09375 -19.421875 "/></g></g></g><g fill="#004aad" fill-opacity="1"><g transform="translate(260.408637, 176.004238)"><g><path d="M 5.203125 0 L 2.46875 0 L 2.46875 -21.78125 L 5.203125 -21.78125 Z M 5.203125 0 "/></g></g></g><g fill="#004aad" fill-opacity="1"><g transform="translate(268.069769, 176.004238)"><g><path d="M 16.578125 0 L 13.828125 0 L 5.109375 -16.78125 L 5.109375 0 L 2.34375 0 L 2.34375 -21.78125 L 5.109375 -21.78125 L 13.859375 -4.921875 L 13.859375 -21.78125 L 16.578125 -21.78125 Z M 16.578125 0 "/></g></g></g><g fill="#004aad" fill-opacity="1"><g transform="translate(287.043042, 176.004238)"><g><path d="M 15.984375 -2.703125 L 15.5 -2.109375 C 14.125 -0.503906 12.109375 0.296875 9.453125 0.296875 C 7.097656 0.296875 5.25 -0.484375 3.90625 -2.046875 C 2.570312 -3.609375 1.890625 -5.8125 1.859375 -8.65625 L 1.859375 -12.9375 C 1.859375 -15.988281 2.46875 -18.273438 3.6875 -19.796875 C 4.90625 -21.316406 6.734375 -22.078125 9.171875 -22.078125 C 11.242188 -22.078125 12.863281 -21.5 14.03125 -20.34375 C 15.207031 -19.1875 15.859375 -17.535156 15.984375 -15.390625 L 13.234375 -15.390625 C 13.128906 -16.753906 12.753906 -17.816406 12.109375 -18.578125 C 11.460938 -19.335938 10.488281 -19.71875 9.1875 -19.71875 C 7.625 -19.71875 6.476562 -19.207031 5.75 -18.1875 C 5.019531 -17.164062 4.640625 -15.53125 4.609375 -13.28125 L 4.609375 -8.84375 C 4.609375 -6.644531 5.023438 -4.957031 5.859375 -3.78125 C 6.703125 -2.613281 7.90625 -2.03125 9.46875 -2.03125 C 10.945312 -2.03125 12.070312 -2.390625 12.84375 -3.109375 L 13.234375 -3.484375 L 13.234375 -8.515625 L 9.265625 -8.515625 L 9.265625 -10.84375 L 15.984375 -10.84375 Z M 15.984375 -2.703125 "/></g></g></g></svg>